<svg xmlns="http://www.w3.org/2000/svg" viewBox="0 0 900 480">
  <defs>
    <linearGradient id="sky" x1="0" y1="0" x2="1" y2="1">
      <stop offset="0" stop-color="#4b91c9"/>
      <stop offset="1" stop-color="#9ac8e8"/>
    </linearGradient>
    <filter id="shadow"><feDropShadow dx="0" dy="14" stdDeviation="13" flood-opacity=".3"/></filter>
  </defs>
  <rect width="900" height="480" rx="36" fill="url(#sky)"/>
  <g transform="translate(95 74)" filter="url(#shadow)">
    <path d="M158 191h344l148-95 39 10-81 113 102 44-17 31-144-24-111 89-41-3 54-105H169c-51 0-90-15-128-49 38-8 78-11 117-11Z" fill="#fff" stroke="#dce8f1" stroke-width="8" stroke-linejoin="round"/>
    <path d="M502 191 629 93l30 8-62 111Z" fill="#e63946"/>
    <path d="M333 251 258 352l-37-3 31-98Z" fill="#e63946"/>
    <path d="M117 203c28 17 54 25 90 25h327" fill="none" stroke="#1d4f86" stroke-width="12" stroke-linecap="round"/>
    <ellipse cx="300" cy="266" rx="52" ry="31" fill="#dce8f1" stroke="#8fa7b9" stroke-width="8"/>
    <ellipse cx="499" cy="266" rx="52" ry="31" fill="#dce8f1" stroke="#8fa7b9" stroke-width="8"/>
  </g>
  <text x="450" y="432" text-anchor="middle" font-family="Arial, sans-serif" font-size="30" font-weight="700" fill="#eef8ff">Photo de l’appareil indisponible</text>
</svg>
